<svg width="64" height="64" viewBox="0 0 64 64" fill="none" xmlns="http://www.w3.org/2000/svg">
<path d="M24.5966 37L26.2869 26.8182H29.7273C30.5227 26.8182 31.1508 26.9607 31.6115 27.2457C32.0755 27.5308 32.3887 27.9169 32.5511 28.4041C32.7169 28.8913 32.75 29.4366 32.6506 30.0398C32.5511 30.6364 32.3374 31.1799 32.0092 31.6705C31.6844 32.161 31.2436 32.5521 30.6868 32.8438C30.1333 33.1354 29.4621 33.2812 28.6733 33.2812H26.2074L26.3864 32.1875H28.8125C29.3561 32.1875 29.8101 32.093 30.1747 31.9041C30.5393 31.7152 30.8243 31.4583 31.0298 31.1335C31.2353 30.8087 31.3712 30.4441 31.4375 30.0398C31.5038 29.6288 31.4872 29.2642 31.3878 28.946C31.2917 28.6245 31.0911 28.3726 30.7862 28.1903C30.4846 28.0047 30.0587 27.9119 29.5085 27.9119H27.3409L25.8295 37H24.5966ZM33.3105 37L34.5833 29.3636H35.7168L35.5179 30.517H35.5975C35.7963 30.1392 36.0996 29.8326 36.5073 29.5973C36.915 29.362 37.3475 29.2443 37.8049 29.2443C37.8944 29.2443 38.0021 29.246 38.128 29.2493C38.254 29.2493 38.3517 29.2543 38.4213 29.2642L38.2225 30.4574C38.1827 30.4474 38.0932 30.4325 37.954 30.4126C37.8148 30.3894 37.6657 30.3778 37.5066 30.3778C37.1354 30.3778 36.7923 30.4557 36.4775 30.6115C36.1626 30.764 35.8991 30.9761 35.687 31.2479C35.4748 31.5163 35.339 31.8229 35.2793 32.1676L34.4838 37H33.3105ZM41.4963 37.1591C40.7638 37.1591 40.1589 36.9967 39.6816 36.6719C39.2044 36.3438 38.8713 35.8864 38.6824 35.2997C38.4934 34.7098 38.4636 34.0237 38.5929 33.2415C38.7221 32.4593 38.979 31.7699 39.3635 31.1733C39.7479 30.5734 40.2269 30.1061 40.8002 29.7713C41.3736 29.4332 42.0034 29.2642 42.6895 29.2642C43.0872 29.2642 43.47 29.3305 43.8379 29.4631C44.2058 29.5956 44.524 29.8111 44.7924 30.1094C45.0609 30.4044 45.2482 30.7955 45.3542 31.2827C45.4603 31.7699 45.4537 32.3698 45.3343 33.0824L45.2548 33.5795H39.3684L39.5275 32.5653H44.2207C44.2969 32.1345 44.277 31.75 44.161 31.4119C44.0484 31.0739 43.8511 30.8071 43.5694 30.6115C43.291 30.416 42.938 30.3182 42.5105 30.3182C42.0697 30.3182 41.6587 30.4375 41.2775 30.6761C40.8964 30.9115 40.5782 31.2098 40.323 31.571C40.0678 31.929 39.9087 32.2936 39.8457 32.6648L39.7065 33.5398C39.6071 34.1728 39.622 34.6766 39.7512 35.0511C39.8838 35.4257 40.1142 35.6958 40.4423 35.8615C40.7704 36.0239 41.1814 36.1051 41.6752 36.1051C41.9901 36.1051 42.2801 36.062 42.5453 35.9759C42.8104 35.8864 43.0474 35.7538 43.2562 35.5781C43.465 35.3991 43.6407 35.1771 43.7832 34.9119L44.8571 35.2301C44.6748 35.6146 44.4179 35.9527 44.0865 36.2443C43.7583 36.5327 43.3739 36.758 42.9331 36.9205C42.4956 37.0795 42.0166 37.1591 41.4963 37.1591ZM49.3638 37.1591C48.7241 37.1591 48.1872 36.9983 47.753 36.6768C47.3188 36.352 47.0123 35.8946 46.8333 35.3047C46.6576 34.7114 46.6361 34.0104 46.7686 33.2017C46.9045 32.3996 47.1581 31.7036 47.5293 31.1136C47.9038 30.5237 48.3629 30.0679 48.9064 29.7464C49.45 29.425 50.0433 29.2642 50.6863 29.2642C51.1834 29.2642 51.5629 29.3471 51.8248 29.5128C52.0899 29.6752 52.2821 29.8608 52.4015 30.0696C52.5208 30.2751 52.6119 30.4441 52.6749 30.5767H52.7743L53.4007 26.8182H54.574L52.8837 37H51.7502L51.949 35.8267H51.8098C51.7005 35.9659 51.548 36.1416 51.3525 36.3537C51.1569 36.5625 50.8984 36.7498 50.5769 36.9155C50.2587 37.0779 49.8543 37.1591 49.3638 37.1591ZM49.6522 36.1051C50.1228 36.1051 50.5437 35.9825 50.915 35.7372C51.2895 35.4886 51.601 35.1456 51.8496 34.7081C52.0982 34.2673 52.2705 33.7585 52.3667 33.1818C52.4628 32.6117 52.4595 32.1129 52.3567 31.6854C52.254 31.2545 52.0568 30.9197 51.7651 30.6811C51.4734 30.4392 51.0873 30.3182 50.6067 30.3182C50.1129 30.3182 49.6837 30.4458 49.3191 30.701C48.9545 30.9529 48.6578 31.2959 48.4292 31.7301C48.2005 32.161 48.0414 32.6449 47.9519 33.1818C47.8624 33.7254 47.8607 34.2192 47.9469 34.6634C48.0331 35.1042 48.2154 35.4555 48.4938 35.7173C48.7755 35.9759 49.1616 36.1051 49.6522 36.1051Z" fill="#007AFF"/>
<path d="M24.5966 20L26.2869 9.81818H29.7273C30.5227 9.81818 31.1508 9.9607 31.6115 10.2457C32.0755 10.5308 32.3887 10.9169 32.5511 11.4041C32.7169 11.8913 32.75 12.4366 32.6506 13.0398C32.5511 13.6364 32.3374 14.1799 32.0092 14.6705C31.6844 15.161 31.2436 15.5521 30.6868 15.8438C30.1333 16.1354 29.4621 16.2812 28.6733 16.2812H26.2074L26.3864 15.1875H28.8125C29.3561 15.1875 29.8101 15.093 30.1747 14.9041C30.5393 14.7152 30.8243 14.4583 31.0298 14.1335C31.2353 13.8087 31.3712 13.4441 31.4375 13.0398C31.5038 12.6288 31.4872 12.2642 31.3878 11.946C31.2917 11.6245 31.0911 11.3726 30.7862 11.1903C30.4846 11.0047 30.0587 10.9119 29.5085 10.9119H27.3409L25.8295 20H24.5966ZM33.3105 20L34.5833 12.3636H35.7168L35.5179 13.517H35.5975C35.7963 13.1392 36.0996 12.8326 36.5073 12.5973C36.915 12.362 37.3475 12.2443 37.8049 12.2443C37.8944 12.2443 38.0021 12.246 38.128 12.2493C38.254 12.2493 38.3517 12.2543 38.4213 12.2642L38.2225 13.4574C38.1827 13.4474 38.0932 13.4325 37.954 13.4126C37.8148 13.3894 37.6657 13.3778 37.5066 13.3778C37.1354 13.3778 36.7923 13.4557 36.4775 13.6115C36.1626 13.764 35.8991 13.9761 35.687 14.2479C35.4748 14.5163 35.339 14.8229 35.2793 15.1676L34.4838 20H33.3105ZM41.4963 20.1591C40.7638 20.1591 40.1589 19.9967 39.6816 19.6719C39.2044 19.3438 38.8713 18.8864 38.6824 18.2997C38.4934 17.7098 38.4636 17.0237 38.5929 16.2415C38.7221 15.4593 38.979 14.7699 39.3635 14.1733C39.7479 13.5734 40.2269 13.1061 40.8002 12.7713C41.3736 12.4332 42.0034 12.2642 42.6895 12.2642C43.0872 12.2642 43.47 12.3305 43.8379 12.4631C44.2058 12.5956 44.524 12.8111 44.7924 13.1094C45.0609 13.4044 45.2482 13.7955 45.3542 14.2827C45.4603 14.7699 45.4537 15.3698 45.3343 16.0824L45.2548 16.5795H39.3684L39.5275 15.5653H44.2207C44.2969 15.1345 44.277 14.75 44.161 14.4119C44.0484 14.0739 43.8511 13.8071 43.5694 13.6115C43.291 13.416 42.938 13.3182 42.5105 13.3182C42.0697 13.3182 41.6587 13.4375 41.2775 13.6761C40.8964 13.9115 40.5782 14.2098 40.323 14.571C40.0678 14.929 39.9087 15.2936 39.8457 15.6648L39.7065 16.5398C39.6071 17.1728 39.622 17.6766 39.7512 18.0511C39.8838 18.4257 40.1142 18.6958 40.4423 18.8615C40.7704 19.0239 41.1814 19.1051 41.6752 19.1051C41.9901 19.1051 42.2801 19.062 42.5453 18.9759C42.8104 18.8864 43.0474 18.7538 43.2562 18.5781C43.465 18.3991 43.6407 18.1771 43.7832 17.9119L44.8571 18.2301C44.6748 18.6146 44.4179 18.9527 44.0865 19.2443C43.7583 19.5327 43.3739 19.758 42.9331 19.9205C42.4956 20.0795 42.0166 20.1591 41.4963 20.1591ZM49.3638 20.1591C48.7241 20.1591 48.1872 19.9983 47.753 19.6768C47.3188 19.352 47.0123 18.8946 46.8333 18.3047C46.6576 17.7114 46.6361 17.0104 46.7686 16.2017C46.9045 15.3996 47.1581 14.7036 47.5293 14.1136C47.9038 13.5237 48.3629 13.0679 48.9064 12.7464C49.45 12.425 50.0433 12.2642 50.6863 12.2642C51.1834 12.2642 51.5629 12.3471 51.8248 12.5128C52.0899 12.6752 52.2821 12.8608 52.4015 13.0696C52.5208 13.2751 52.6119 13.4441 52.6749 13.5767H52.7743L53.4007 9.81818H54.574L52.8837 20H51.7502L51.949 18.8267H51.8098C51.7005 18.9659 51.548 19.1416 51.3525 19.3537C51.1569 19.5625 50.8984 19.7498 50.5769 19.9155C50.2587 20.0779 49.8543 20.1591 49.3638 20.1591ZM49.6522 19.1051C50.1228 19.1051 50.5437 18.9825 50.915 18.7372C51.2895 18.4886 51.601 18.1456 51.8496 17.7081C52.0982 17.2673 52.2705 16.7585 52.3667 16.1818C52.4628 15.6117 52.4595 15.1129 52.3567 14.6854C52.254 14.2545 52.0568 13.9197 51.7651 13.6811C51.4734 13.4392 51.0873 13.3182 50.6067 13.3182C50.1129 13.3182 49.6837 13.4458 49.3191 13.701C48.9545 13.9529 48.6578 14.2959 48.4292 14.7301C48.2005 15.161 48.0414 15.6449 47.9519 16.1818C47.8624 16.7254 47.8607 17.2192 47.9469 17.6634C48.0331 18.1042 48.2154 18.4555 48.4938 18.7173C48.7755 18.9759 49.1616 19.1051 49.6522 19.1051Z" fill="#007AFF" fill-opacity="0.25"/>
<path d="M24.5966 54L26.2869 43.8182H29.7273C30.5227 43.8182 31.1508 43.9607 31.6115 44.2457C32.0755 44.5308 32.3887 44.9169 32.5511 45.4041C32.7169 45.8913 32.75 46.4366 32.6506 47.0398C32.5511 47.6364 32.3374 48.1799 32.0092 48.6705C31.6844 49.161 31.2436 49.5521 30.6868 49.8438C30.1333 50.1354 29.4621 50.2812 28.6733 50.2812H26.2074L26.3864 49.1875H28.8125C29.3561 49.1875 29.8101 49.093 30.1747 48.9041C30.5393 48.7152 30.8243 48.4583 31.0298 48.1335C31.2353 47.8087 31.3712 47.4441 31.4375 47.0398C31.5038 46.6288 31.4872 46.2642 31.3878 45.946C31.2917 45.6245 31.0911 45.3726 30.7862 45.1903C30.4846 45.0047 30.0587 44.9119 29.5085 44.9119H27.3409L25.8295 54H24.5966ZM33.3105 54L34.5833 46.3636H35.7168L35.5179 47.517H35.5975C35.7963 47.1392 36.0996 46.8326 36.5073 46.5973C36.915 46.362 37.3475 46.2443 37.8049 46.2443C37.8944 46.2443 38.0021 46.246 38.128 46.2493C38.254 46.2493 38.3517 46.2543 38.4213 46.2642L38.2225 47.4574C38.1827 47.4474 38.0932 47.4325 37.954 47.4126C37.8148 47.3894 37.6657 47.3778 37.5066 47.3778C37.1354 47.3778 36.7923 47.4557 36.4775 47.6115C36.1626 47.764 35.8991 47.9761 35.687 48.2479C35.4748 48.5163 35.339 48.8229 35.2793 49.1676L34.4838 54H33.3105ZM41.4963 54.1591C40.7638 54.1591 40.1589 53.9967 39.6816 53.6719C39.2044 53.3438 38.8713 52.8864 38.6824 52.2997C38.4934 51.7098 38.4636 51.0237 38.5929 50.2415C38.7221 49.4593 38.979 48.7699 39.3635 48.1733C39.7479 47.5734 40.2269 47.1061 40.8002 46.7713C41.3736 46.4332 42.0034 46.2642 42.6895 46.2642C43.0872 46.2642 43.47 46.3305 43.8379 46.4631C44.2058 46.5956 44.524 46.8111 44.7924 47.1094C45.0609 47.4044 45.2482 47.7955 45.3542 48.2827C45.4603 48.7699 45.4537 49.3698 45.3343 50.0824L45.2548 50.5795H39.3684L39.5275 49.5653H44.2207C44.2969 49.1345 44.277 48.75 44.161 48.4119C44.0484 48.0739 43.8511 47.8071 43.5694 47.6115C43.291 47.416 42.938 47.3182 42.5105 47.3182C42.0697 47.3182 41.6587 47.4375 41.2775 47.6761C40.8964 47.9115 40.5782 48.2098 40.323 48.571C40.0678 48.929 39.9087 49.2936 39.8457 49.6648L39.7065 50.5398C39.6071 51.1728 39.622 51.6766 39.7512 52.0511C39.8838 52.4257 40.1142 52.6958 40.4423 52.8615C40.7704 53.0239 41.1814 53.1051 41.6752 53.1051C41.9901 53.1051 42.2801 53.062 42.5453 52.9759C42.8104 52.8864 43.0474 52.7538 43.2562 52.5781C43.465 52.3991 43.6407 52.1771 43.7832 51.9119L44.8571 52.2301C44.6748 52.6146 44.4179 52.9527 44.0865 53.2443C43.7583 53.5327 43.3739 53.758 42.9331 53.9205C42.4956 54.0795 42.0166 54.1591 41.4963 54.1591ZM49.3638 54.1591C48.7241 54.1591 48.1872 53.9983 47.753 53.6768C47.3188 53.352 47.0123 52.8946 46.8333 52.3047C46.6576 51.7114 46.6361 51.0104 46.7686 50.2017C46.9045 49.3996 47.1581 48.7036 47.5293 48.1136C47.9038 47.5237 48.3629 47.0679 48.9064 46.7464C49.45 46.425 50.0433 46.2642 50.6863 46.2642C51.1834 46.2642 51.5629 46.3471 51.8248 46.5128C52.0899 46.6752 52.2821 46.8608 52.4015 47.0696C52.5208 47.2751 52.6119 47.4441 52.6749 47.5767H52.7743L53.4007 43.8182H54.574L52.8837 54H51.7502L51.949 52.8267H51.8098C51.7005 52.9659 51.548 53.1416 51.3525 53.3537C51.1569 53.5625 50.8984 53.7498 50.5769 53.9155C50.2587 54.0779 49.8543 54.1591 49.3638 54.1591ZM49.6522 53.1051C50.1228 53.1051 50.5437 52.9825 50.915 52.7372C51.2895 52.4886 51.601 52.1456 51.8496 51.7081C52.0982 51.2673 52.2705 50.7585 52.3667 50.1818C52.4628 49.6117 52.4595 49.1129 52.3567 48.6854C52.254 48.2545 52.0568 47.9197 51.7651 47.6811C51.4734 47.4392 51.0873 47.3182 50.6067 47.3182C50.1129 47.3182 49.6837 47.4458 49.3191 47.701C48.9545 47.9529 48.6578 48.2959 48.4292 48.7301C48.2005 49.161 48.0414 49.6449 47.9519 50.1818C47.8624 50.7254 47.8607 51.2192 47.9469 51.6634C48.0331 52.1042 48.2154 52.4555 48.4938 52.7173C48.7755 52.9759 49.1616 53.1051 49.6522 53.1051Z" fill="#007AFF" fill-opacity="0.25"/>
<rect x="9" y="10" width="10" height="10" rx="3" fill="#007AFF" fill-opacity="0.25"/>
<rect x="9" y="27" width="10" height="10" rx="3" fill="#007AFF"/>
<rect x="9" y="44" width="10" height="10" rx="3" fill="#007AFF" fill-opacity="0.25"/>
</svg>
