<svg width="64" height="64" viewBox="0 0 64 64" fill="none" xmlns="http://www.w3.org/2000/svg">
<circle cx="32" cy="28" r="2" fill="#007AFF"/>
<circle cx="32" cy="24" r="2" fill="#007AFF"/>
<circle cx="32" cy="20" r="2" fill="#007AFF"/>
<circle cx="36" cy="32" r="2" fill="#007AFF"/>
<circle cx="36" cy="28" r="2" fill="#007AFF"/>
<circle cx="36" cy="24" r="2" fill="#007AFF"/>
<circle cx="28" cy="32" r="2" fill="#007AFF"/>
<circle cx="28" cy="28" r="2" fill="#007AFF"/>
<circle cx="28" cy="24" r="2" fill="#007AFF"/>
<circle cx="28" cy="20" r="2" fill="#007AFF"/>
<circle cx="28" cy="16" r="2" fill="#007AFF"/>
<circle cx="44" cy="24" r="2" fill="#A3CFFF"/>
<circle cx="44" cy="20" r="2" fill="#A3CFFF"/>
<circle cx="44" cy="16" r="2" fill="#A3CFFF"/>
<circle cx="40" cy="20" r="2" fill="#A3CFFF"/>
<circle cx="40" cy="16" r="2" fill="#A3CFFF"/>
<circle cx="20" cy="32" r="2" fill="#007AFF"/>
<circle cx="20" cy="28" r="2" fill="#007AFF"/>
<circle cx="20" cy="24" r="2" fill="#007AFF"/>
<circle cx="20" cy="20" r="2" fill="#3897FF"/>
<circle cx="20" cy="16" r="2" fill="#3897FF"/>
<circle cx="24" cy="32" r="2" fill="#007AFF"/>
<circle cx="24" cy="28" r="2" fill="#007AFF"/>
<circle cx="24" cy="24" r="2" fill="#007AFF"/>
<circle cx="24" cy="20" r="2" fill="#3897FF"/>
<circle cx="24" cy="16" r="2" fill="#3897FF"/>
<circle cx="16" cy="32" r="2" fill="#3897FF"/>
<circle cx="16" cy="28" r="2" fill="#3897FF"/>
<circle cx="16" cy="24" r="2" fill="#3897FF"/>
<circle cx="32" cy="48" r="2" fill="#A3CFFF"/>
<circle cx="32" cy="36" r="2" fill="#007AFF"/>
<circle cx="36" cy="48" r="2" fill="#A3CFFF"/>
<circle cx="36" cy="36" r="2" fill="#007AFF"/>
<circle cx="28" cy="48" r="2" fill="#A3CFFF"/>
<circle cx="28" cy="36" r="2" fill="#007AFF"/>
<circle cx="44" cy="44" r="2" fill="#3897FF"/>
<circle cx="48" cy="44" r="2" fill="#3897FF"/>
<circle cx="48" cy="40" r="2" fill="#3897FF"/>
<circle cx="52" cy="32" r="2" fill="#A3CFFF"/>
<circle cx="52" cy="16" r="2" fill="#E0EFFF"/>
<circle cx="56" cy="32" r="2" fill="#A3CFFF"/>
<circle cx="56" cy="28" r="2" fill="#A3CFFF"/>
<circle cx="56" cy="16" r="2" fill="#E0EFFF"/>
<circle cx="52" cy="36" r="2" fill="#A3CFFF"/>
<circle cx="56" cy="36" r="2" fill="#A3CFFF"/>
<circle cx="8" cy="16" r="2" fill="#E0EFFF"/>
<circle cx="12" cy="32" r="2" fill="#3897FF"/>
<circle cx="12" cy="28" r="2" fill="#3897FF"/>
<circle cx="28" cy="8" r="2" fill="#A3CFFF"/>
<circle cx="48" cy="12" r="2" fill="#E0EFFF"/>
<circle cx="48" cy="8" r="2" fill="#E0EFFF"/>
<circle cx="20" cy="12" r="2" fill="#A3CFFF"/>
<circle cx="24" cy="12" r="2" fill="#A3CFFF"/>
<circle cx="24" cy="8" r="2" fill="#A3CFFF"/>
<circle cx="52" cy="12" r="2" fill="#E0EFFF"/>
<circle cx="56" cy="12" r="2" fill="#E0EFFF"/>
<circle cx="56" cy="8" r="2" fill="#E0EFFF"/>
<circle cx="8" cy="12" r="2" fill="#E0EFFF"/>
<circle cx="12" cy="12" r="2" fill="#E0EFFF"/>
<circle cx="32" cy="56" r="2" fill="#007AFF" fill-opacity="0.12"/>
<circle cx="32" cy="52" r="2" fill="#007AFF" fill-opacity="0.12"/>
<circle cx="36" cy="56" r="2" fill="#007AFF" fill-opacity="0.12"/>
<circle cx="28" cy="56" r="2" fill="#007AFF" fill-opacity="0.12"/>
<circle cx="28" cy="52" r="2" fill="#007AFF" fill-opacity="0.12"/>
<circle cx="44" cy="52" r="2" fill="#007AFF" fill-opacity="0.12"/>
<circle cx="40" cy="52" r="2" fill="#007AFF" fill-opacity="0.12"/>
<circle cx="20" cy="52" r="2" fill="#007AFF" fill-opacity="0.12"/>
<circle cx="24" cy="56" r="2" fill="#007AFF" fill-opacity="0.12"/>
<circle cx="24" cy="52" r="2" fill="#007AFF" fill-opacity="0.12"/>
<circle cx="16" cy="52" r="2" fill="#007AFF" fill-opacity="0.12"/>
<circle cx="12" cy="52" r="2" fill="#007AFF" fill-opacity="0.12"/>
<circle cx="8" cy="48" r="2" fill="#A3CFFF"/>
<circle cx="12" cy="48" r="2" fill="#A3CFFF"/>
<circle cx="12" cy="44" r="2" fill="#3897FF"/>
<circle cx="40" cy="48" r="2" fill="#A3CFFF"/>
<circle cx="20" cy="48" r="2" fill="#A3CFFF"/>
<circle cx="20" cy="40" r="2" fill="#007AFF"/>
<circle cx="24" cy="36" r="2" fill="#007AFF"/>
<circle cx="16" cy="48" r="2" fill="#A3CFFF"/>
<circle cx="16" cy="40" r="2" fill="#3897FF"/>
<circle cx="16" cy="36" r="2" fill="#3897FF"/>
</svg>
