<svg width="64" height="64" viewBox="0 0 64 64" fill="none" xmlns="http://www.w3.org/2000/svg">
<line x1="10.5" y1="37.5" x2="53.5" y2="37.5" stroke="black" stroke-width="3" stroke-linecap="round"/>
<line x1="10.5" y1="49.5" x2="53.5" y2="49.5" stroke="black" stroke-width="3" stroke-linecap="round"/>
<line x1="41.5" y1="25.5" x2="53.5" y2="25.5" stroke="black" stroke-width="3" stroke-linecap="round"/>
<path d="M10.2764 14.2031H12.3682L15.8662 23.8359L19.3555 14.2031H21.4561L16.7012 27H15.0225L10.2764 14.2031ZM9.22168 14.2031H11.2695L11.6387 23.0537V27H9.22168V14.2031ZM20.4541 14.2031H22.5107V27H20.0938V23.0537L20.4541 14.2031ZM28.7949 27H26.0352L26.0527 25.1016H28.7949C29.5391 25.1016 30.1631 24.9375 30.667 24.6094C31.1709 24.2754 31.5518 23.7979 31.8096 23.1768C32.0674 22.5498 32.1963 21.7998 32.1963 20.9268V20.2676C32.1963 19.5938 32.123 18.999 31.9766 18.4834C31.8301 17.9678 31.6133 17.5342 31.3262 17.1826C31.0449 16.8311 30.6963 16.5645 30.2803 16.3828C29.8643 16.2012 29.3867 16.1104 28.8477 16.1104H25.9824V14.2031H28.8477C29.7031 14.2031 30.4824 14.3467 31.1855 14.6338C31.8945 14.9209 32.5068 15.334 33.0225 15.873C33.5439 16.4062 33.9424 17.0449 34.2178 17.7891C34.499 18.5332 34.6396 19.3652 34.6396 20.2852V20.9268C34.6396 21.8408 34.499 22.6729 34.2178 23.4229C33.9424 24.167 33.5439 24.8057 33.0225 25.3389C32.5068 25.8721 31.8916 26.2822 31.1768 26.5693C30.4619 26.8564 29.668 27 28.7949 27ZM27.3887 14.2031V27H24.9717V14.2031H27.3887Z" fill="black"/>
</svg>
